<?xml version="1.0" standalone="no"?>
<!DOCTYPE svg PUBLIC "-//W3C//DTD SVG 20010904//EN"
 "http://www.w3.org/TR/2001/REC-SVG-20010904/DTD/svg10.dtd">
<svg version="1.0" xmlns="http://www.w3.org/2000/svg"
 width="256.000000pt" height="256.000000pt" viewBox="0 0 256.000000 256.000000"
 preserveAspectRatio="xMidYMid meet">

<g transform="translate(0.000000,256.000000) scale(0.100000,-0.100000)"
fill="#000000" stroke="none">
<path d="M629 1998 l-27 -54 255 -310 c240 -292 252 -309 227 -312 -27 -4
-573 23 -709 34 l-71 5 -23 -50 c-13 -27 -21 -55 -19 -63 3 -7 126 -159 272
-338 200 -243 275 -328 299 -337 19 -6 218 -20 472 -33 242 -11 475 -24 517
-27 l77 -6 27 55 27 56 -267 308 c-266 308 -266 309 -234 312 31 3 565 -22
720 -34 l77 -6 27 55 27 55 -289 335 c-159 185 -300 340 -314 345 -14 6 -223
20 -465 31 -242 12 -471 24 -510 28 l-70 5 -26 -54z m581 -108 c212 -11 397
-21 412 -23 21 -2 71 -54 251 -262 124 -143 224 -261 223 -263 -5 -5 -832 39
-852 46 -12 4 -88 88 -170 187 -81 99 -176 215 -212 258 -35 42 -58 77 -50 77
7 0 186 -9 398 -20z m-228 -699 l316 -16 225 -260 c124 -143 224 -261 222
-263 -1 -2 -196 7 -433 20 l-431 22 -164 201 c-91 110 -188 229 -217 263 l-53
63 109 -6 c60 -4 252 -14 426 -24z"/>
</g>
</svg>
