<svg width="129" height="160" viewBox="0 0 129 160" fill="none" xmlns="http://www.w3.org/2000/svg">
<rect x="20" width="109" height="150" rx="8.4" fill="#EEEEEE"/>
<rect y="10" width="107" height="150" rx="8.4" fill="white"/>
<path d="M27.0338 22.5697H28.3198L29.558 24.9083H29.6111L30.8493 22.5697H32.1353L30.1546 26.0803V28H29.0145V26.0803L27.0338 22.5697ZM37.4244 25.2848C37.4244 25.877 37.3122 26.3808 37.0877 26.7962C36.8649 27.2116 36.5609 27.5289 36.1756 27.7481C35.792 27.9655 35.3607 28.0742 34.8816 28.0742C34.399 28.0742 33.966 27.9646 33.5824 27.7455C33.1988 27.5263 32.8956 27.209 32.6729 26.7936C32.4502 26.3782 32.3388 25.8753 32.3388 25.2848C32.3388 24.6927 32.4502 24.1889 32.6729 23.7735C32.8956 23.3581 33.1988 23.0417 33.5824 22.8242C33.966 22.6051 34.399 22.4955 34.8816 22.4955C35.3607 22.4955 35.792 22.6051 36.1756 22.8242C36.5609 23.0417 36.8649 23.3581 37.0877 23.7735C37.3122 24.1889 37.4244 24.6927 37.4244 25.2848ZM36.2604 25.2848C36.2604 24.9013 36.203 24.5778 36.0881 24.3144C35.9749 24.051 35.8149 23.8513 35.6081 23.7152C35.4013 23.579 35.1591 23.511 34.8816 23.511C34.6041 23.511 34.3619 23.579 34.1551 23.7152C33.9483 23.8513 33.7874 24.051 33.6725 24.3144C33.5594 24.5778 33.5028 24.9013 33.5028 25.2848C33.5028 25.6684 33.5594 25.9919 33.6725 26.2553C33.7874 26.5187 33.9483 26.7184 34.1551 26.8545C34.3619 26.9907 34.6041 27.0587 34.8816 27.0587C35.1591 27.0587 35.4013 26.9907 35.6081 26.8545C35.8149 26.7184 35.9749 26.5187 36.0881 26.2553C36.203 25.9919 36.2604 25.6684 36.2604 25.2848ZM41.6291 22.5697H42.7772V26.0962C42.7772 26.4922 42.6826 26.8386 42.4935 27.1356C42.3061 27.4326 42.0436 27.6641 41.706 27.8303C41.3683 27.9947 40.975 28.0769 40.526 28.0769C40.0753 28.0769 39.6811 27.9947 39.3435 27.8303C39.0058 27.6641 38.7433 27.4326 38.556 27.1356C38.3686 26.8386 38.2749 26.4922 38.2749 26.0962V22.5697H39.423V25.9981C39.423 26.2049 39.4681 26.3888 39.5582 26.5496C39.6501 26.7105 39.7792 26.8369 39.9453 26.9288C40.1115 27.0207 40.3051 27.0667 40.526 27.0667C40.7488 27.0667 40.9423 27.0207 41.1067 26.9288C41.2729 26.8369 41.401 26.7105 41.4912 26.5496C41.5831 26.3888 41.6291 26.2049 41.6291 25.9981V22.5697ZM43.7218 28V22.5697H45.8642C46.2743 22.5697 46.6243 22.6431 46.9142 22.7898C47.2059 22.9347 47.4277 23.1407 47.5797 23.4076C47.7335 23.6727 47.8104 23.9847 47.8104 24.3436C47.8104 24.7042 47.7326 25.0144 47.5771 25.2742C47.4215 25.5323 47.1961 25.7303 46.9009 25.8682C46.6075 26.0061 46.2522 26.075 45.835 26.075H44.4006V25.1523H45.6494C45.8686 25.1523 46.0507 25.1222 46.1956 25.0621C46.3406 25.002 46.4484 24.9119 46.5191 24.7917C46.5916 24.6715 46.6278 24.5221 46.6278 24.3436C46.6278 24.1633 46.5916 24.0112 46.5191 23.8875C46.4484 23.7638 46.3397 23.6701 46.193 23.6064C46.048 23.541 45.8651 23.5083 45.6441 23.5083H44.8699V28H43.7218ZM46.6543 25.5288L48.004 28H46.7365L45.4161 25.5288H46.6543ZM50.3499 28V22.5697H52.5241C52.9236 22.5697 53.2568 22.6289 53.5238 22.7473C53.7907 22.8658 53.9913 23.0302 54.1256 23.2405C54.26 23.4491 54.3272 23.6895 54.3272 23.9617C54.3272 24.1739 54.2847 24.3604 54.1999 24.5212C54.115 24.6803 53.9984 24.8111 53.8499 24.9136C53.7032 25.0144 53.5352 25.086 53.3461 25.1284V25.1814C53.5529 25.1903 53.7465 25.2486 53.9268 25.3564C54.1089 25.4643 54.2565 25.6154 54.3696 25.8098C54.4827 26.0025 54.5393 26.2323 54.5393 26.4992C54.5393 26.7874 54.4677 27.0446 54.3245 27.2708C54.1831 27.4953 53.9736 27.673 53.6961 27.8038C53.4186 27.9346 53.0765 28 52.67 28H50.3499ZM51.498 27.0614H52.434C52.7539 27.0614 52.9873 27.0004 53.134 26.8784C53.2807 26.7547 53.3541 26.5903 53.3541 26.3852C53.3541 26.235 53.3178 26.1024 53.2453 25.9875C53.1729 25.8726 53.0695 25.7824 52.9351 25.717C52.8025 25.6516 52.6443 25.6189 52.4605 25.6189H51.498V27.0614ZM51.498 24.842H52.3491C52.5065 24.842 52.6461 24.8146 52.7681 24.7598C52.8918 24.7033 52.989 24.6237 53.0597 24.5212C53.1322 24.4187 53.1685 24.2958 53.1685 24.1527C53.1685 23.9564 53.0986 23.7982 52.959 23.678C52.8211 23.5578 52.6249 23.4977 52.3703 23.4977H51.498V24.842ZM55.2864 28V22.5697H57.4288C57.8389 22.5697 58.1889 22.6431 58.4788 22.7898C58.7704 22.9347 58.9923 23.1407 59.1443 23.4076C59.2981 23.6727 59.375 23.9847 59.375 24.3436C59.375 24.7042 59.2972 25.0144 59.1417 25.2742C58.9861 25.5323 58.7607 25.7303 58.4655 25.8682C58.1721 26.0061 57.8168 26.075 57.3996 26.075H55.9651V25.1523H57.214C57.4332 25.1523 57.6153 25.1222 57.7602 25.0621C57.9052 25.002 58.013 24.9119 58.0837 24.7917C58.1562 24.6715 58.1924 24.5221 58.1924 24.3436C58.1924 24.1633 58.1562 24.0112 58.0837 23.8875C58.013 23.7638 57.9043 23.6701 57.7576 23.6064C57.6126 23.541 57.4297 23.5083 57.2087 23.5083H56.4345V28H55.2864ZM58.2189 25.5288L59.5685 28H58.3011L56.9807 25.5288H58.2189ZM61.1223 28H59.892L61.7667 22.5697H63.2462L65.1182 28H63.8879L62.5276 23.8106H62.4852L61.1223 28ZM61.0454 25.8655H63.9515V26.7617H61.0454V25.8655ZM70.3138 22.5697V28H69.3221L66.9596 24.5822H66.9199V28H65.7718V22.5697H66.7793L69.1233 25.9848H69.171V22.5697H70.3138ZM73.1874 28H71.2624V22.5697H73.2033C73.7495 22.5697 74.2197 22.6784 74.6139 22.8958C75.0081 23.1115 75.3113 23.4217 75.5234 23.8265C75.7373 24.2313 75.8442 24.7157 75.8442 25.2795C75.8442 25.8452 75.7373 26.3313 75.5234 26.7379C75.3113 27.1444 75.0063 27.4564 74.6086 27.6739C74.2126 27.8913 73.7389 28 73.1874 28ZM72.4105 27.0163H73.1397C73.4791 27.0163 73.7645 26.9562 73.9961 26.836C74.2294 26.714 74.4044 26.5258 74.5211 26.2712C74.6395 26.0149 74.6988 25.6843 74.6988 25.2795C74.6988 24.8783 74.6395 24.5504 74.5211 24.2958C74.4044 24.0413 74.2303 23.8539 73.9988 23.7337C73.7672 23.6135 73.4817 23.5534 73.1423 23.5534H72.4105V27.0163Z" fill="#EDEDED"/>
<rect x="6.72" y="18" width="13.44" height="13.44" rx="6.72" fill="#EDEDED"/>
<rect x="7" y="37" width="95" height="64" rx="8.4" fill="#EDEDED"/>
<rect x="6.888" y="105.928" width="19.824" height="19.824" rx="4.872" fill="white" stroke="#F0EFEF" stroke-width="0.336"/>
<rect x="57.288" y="105.928" width="19.824" height="19.824" rx="4.872" fill="white" stroke="#F0EFEF" stroke-width="0.336"/>
<rect x="82.168" y="106.168" width="19.824" height="19.824" rx="4.872" fill="white" stroke="#F0EFEF" stroke-width="0.336"/>
<rect x="32.088" y="105.928" width="19.824" height="19.824" rx="4.872" fill="white" stroke="#F0EFEF" stroke-width="0.336"/>
<rect x="7.084" y="131.084" width="92.832" height="19.832" rx="4.956" fill="white" stroke="#F0EFEF" stroke-width="0.168"/>
<g clip-path="url(#clip0_4_98)">
<path d="M21.4 116.281C21.4 115.936 21.3714 115.685 21.3095 115.424H17.2857V116.979H19.6476C19.6 117.365 19.3428 117.946 18.7714 118.337L18.7634 118.389L20.0357 119.352L20.1238 119.361C20.9333 118.63 21.4 117.555 21.4 116.281Z" fill="#4285F4"/>
<path d="M17.2857 120.375C18.4428 120.375 19.4142 120.003 20.1238 119.361L18.7714 118.337C18.4095 118.584 17.9238 118.756 17.2857 118.756C16.1524 118.756 15.1905 118.025 14.8476 117.016L14.7973 117.02L13.4744 118.02L13.4571 118.067C14.1619 119.435 15.6095 120.375 17.2857 120.375Z" fill="#34A853"/>
<path d="M14.8476 117.016C14.7571 116.755 14.7048 116.476 14.7048 116.188C14.7048 115.899 14.7571 115.62 14.8428 115.359L14.8404 115.304L13.501 114.287L13.4571 114.308C13.1667 114.875 13 115.513 13 116.188C13 116.862 13.1667 117.5 13.4571 118.067L14.8476 117.016Z" fill="#FBBC05"/>
<path d="M17.2857 113.619C18.0905 113.619 18.6333 113.959 18.9428 114.243L20.1524 113.089C19.4095 112.414 18.4428 112 17.2857 112C15.6095 112 14.1619 112.94 13.4571 114.308L14.8428 115.359C15.1905 114.35 16.1524 113.619 17.2857 113.619Z" fill="#EB4335"/>
</g>
<path d="M45.0154 115.81C45.0299 117.181 46.385 117.637 46.4 117.643C46.3885 117.675 46.1835 118.292 45.6861 118.93C45.2561 119.482 44.8098 120.032 44.1069 120.043C43.4161 120.054 43.194 119.683 42.4042 119.683C41.6148 119.683 41.368 120.032 40.7141 120.054C40.0355 120.077 39.5188 119.458 39.0853 118.908C38.1993 117.784 37.5223 115.731 38.4314 114.346C38.883 113.658 39.69 113.222 40.566 113.211C41.2324 113.2 41.8613 113.605 42.2686 113.605C42.6757 113.605 43.44 113.118 44.2435 113.189C44.5798 113.202 45.524 113.309 46.1303 114.088C46.0815 114.114 45.0037 114.665 45.0154 115.81ZM43.7172 112.446C44.0775 112.063 44.3199 111.53 44.2538 111C43.7345 111.018 43.1066 111.304 42.7341 111.686C42.4003 112.025 42.108 112.567 42.1869 113.087C42.7657 113.126 43.3569 112.829 43.7172 112.446Z" fill="black"/>
<path d="M70.6239 113.583C70.0413 113.311 69.4183 113.113 68.7671 113C68.6871 113.145 68.5937 113.339 68.5292 113.494C67.8369 113.39 67.151 113.39 66.4714 113.494C66.407 113.339 66.3115 113.145 66.2308 113C65.5788 113.113 64.9552 113.312 64.3726 113.585C63.1975 115.361 62.8789 117.092 63.0382 118.799C63.8176 119.381 64.5729 119.735 65.3155 119.966C65.4988 119.714 65.6623 119.446 65.8032 119.163C65.5349 119.061 65.2779 118.935 65.0352 118.789C65.0996 118.741 65.1626 118.691 65.2234 118.64C66.7043 119.333 68.3133 119.333 69.7765 118.64C69.8381 118.691 69.9011 118.741 69.9648 118.789C69.7213 118.936 69.4636 119.062 69.1954 119.164C69.3362 119.446 69.499 119.715 69.6831 119.967C70.4264 119.736 71.1824 119.382 71.9617 118.799C72.1486 116.82 71.6425 115.105 70.6239 113.583ZM66.0049 117.749C65.5604 117.749 65.1958 117.334 65.1958 116.829C65.1958 116.324 65.5526 115.908 66.0049 115.908C66.4573 115.908 66.8218 116.323 66.814 116.829C66.8148 117.334 66.4573 117.749 66.0049 117.749ZM68.995 117.749C68.5505 117.749 68.1859 117.334 68.1859 116.829C68.1859 116.324 68.5427 115.908 68.995 115.908C69.4474 115.908 69.8119 116.323 69.8041 116.829C69.8041 117.334 69.4474 117.749 68.995 117.749Z" fill="#5865F2"/>
<path d="M21.491 136.034L17.6205 138.829L18.3297 137.187L21.491 136.034Z" fill="#E17726"/>
<path d="M21.491 136.034L21.4691 136.006L17.7068 138.721L18.3574 137.215L21.5039 136.068L21.491 136.034L21.4781 136.001L18.3166 137.153L18.2955 137.173L17.5865 138.814L17.5977 138.857L17.6424 138.858L21.5131 136.063L21.5234 136.017L21.4781 136.001L21.491 136.034Z" fill="#E17726"/>
<path d="M12.5385 136.034L16.3795 138.857L15.7 137.187L12.5385 136.034ZM20.0729 142.516L19.0387 144.042L21.2547 144.647L21.8752 142.544C21.9047 142.544 20.0729 142.516 20.0729 142.516ZM12.1248 142.573L12.7453 144.676L14.9613 144.071L13.9271 142.544C13.9271 142.516 12.1248 142.573 12.1248 142.573Z" fill="#E27625"/>
<path d="M12.5385 136.034L12.5162 136.063L16.3572 138.886L16.4018 138.886L16.4137 138.844L15.7344 137.173L15.7129 137.153L12.5514 136.001L12.5061 136.017L12.5162 136.063L12.5385 136.034L12.5256 136.068L15.6717 137.215L16.2967 138.751L12.5607 136.006L12.5385 136.034ZM20.0729 142.516L20.042 142.496L19.0078 144.022L19.0041 144.055L19.0287 144.077L21.2447 144.682L21.2902 144.657L21.9107 142.554L21.8752 142.544V142.58L21.8785 142.58L21.9115 142.552L21.8932 142.513L21.8799 142.509L21.8705 142.508C21.7607 142.506 20.0732 142.48 20.0732 142.48L20.0418 142.496L20.0729 142.516L20.0723 142.551C20.0732 142.551 20.5229 142.559 20.9736 142.566C21.199 142.569 21.4242 142.573 21.5934 142.576C21.6779 142.577 21.7482 142.578 21.7975 142.579L21.8547 142.58L21.8697 142.58H21.874L21.8748 142.559L21.8736 142.58H21.874L21.8748 142.559L21.8736 142.58L21.8754 142.546L21.8725 142.58H21.8736L21.8754 142.546L21.8725 142.58L21.8754 142.544L21.8699 142.58L21.8723 142.58L21.8752 142.544L21.8697 142.58L21.8752 142.544L21.8652 142.579L21.8697 142.58L21.8752 142.544L21.8721 142.508L21.8748 142.54V142.508L21.8721 142.508L21.8748 142.54V142.508L21.8393 142.534L21.2289 144.603L19.0971 144.021L20.1033 142.536L20.0729 142.516ZM12.1248 142.573L12.0893 142.583L12.7098 144.686L12.7553 144.711L14.9713 144.106L14.9959 144.084L14.9922 144.051L13.958 142.524L13.9271 142.544L13.9641 142.544L13.9457 142.512L13.9125 142.504C13.8809 142.501 13.8215 142.5 13.7398 142.5C13.277 142.5 12.124 142.537 12.1238 142.537L12.0951 142.552L12.0895 142.583L12.1248 142.573L12.126 142.609C12.1275 142.609 13.2797 142.572 13.7396 142.572C13.7971 142.572 13.8436 142.573 13.8752 142.574L13.9096 142.576L13.9137 142.577L13.9211 142.551L13.907 142.574L13.9137 142.577L13.9211 142.551L13.907 142.574L13.9258 142.544H13.8904L13.9072 142.574L13.926 142.544H13.8906L13.8967 142.564L14.9029 144.049L12.7707 144.632L12.1604 142.563L12.1248 142.573Z" fill="#E27625"/>
<path d="M14.8432 139.923L14.2227 140.816L16.4092 140.903L16.35 138.598L14.8432 139.923ZM19.1865 139.923L17.6502 138.598L17.591 140.931L19.7775 140.845C19.7773 140.816 19.1865 139.923 19.1865 139.923ZM14.9613 144.071L16.291 143.437L15.1387 142.573L14.9613 144.071ZM17.7387 143.437L19.0684 144.071L18.891 142.573C18.8615 142.573 17.7387 143.437 17.7387 143.437Z" fill="#E27625"/>
<path d="M14.8432 139.923L14.8125 139.903L14.192 140.796L14.1896 140.832L14.2211 140.852L16.4076 140.939L16.435 140.928L16.4459 140.902L16.3867 138.597L16.3645 138.565L16.3252 138.572L14.8184 139.896L14.8125 139.903L14.8432 139.923L14.868 139.95L16.3152 138.677L16.3713 140.865L14.2906 140.783L14.8738 139.943L14.8432 139.923ZM19.1865 139.923L19.2109 139.896L17.6746 138.571L17.6354 138.565L17.6131 138.597L17.5539 140.93L17.5648 140.957L17.5922 140.967L19.7789 140.881L19.8143 140.845L19.8096 140.825C19.7979 140.8 19.7578 140.735 19.7004 140.644C19.5295 140.375 19.2176 139.904 19.2174 139.903L19.2107 139.896L19.1865 139.923L19.1555 139.942C19.1559 139.943 19.3031 140.166 19.4508 140.392C19.5246 140.506 19.5984 140.62 19.6537 140.708C19.6813 140.751 19.7043 140.788 19.7201 140.815L19.7381 140.846L19.7418 140.854L19.7707 140.845H19.7406L19.742 140.854L19.7709 140.845H19.7408H19.7777L19.7762 140.809L17.6291 140.894L17.6854 138.676L19.1623 139.95L19.1865 139.923ZM14.9613 144.071L14.9775 144.103L16.3072 143.47L16.3277 143.441L16.3135 143.409L15.1611 142.545L15.1242 142.54L15.102 142.569L14.9246 144.067L14.94 144.1L14.9775 144.103L14.9613 144.071L14.998 144.075L15.1678 142.64L16.2211 143.43L14.9449 144.039L14.9613 144.071ZM17.7387 143.437L17.7225 143.47L19.0521 144.103L19.0896 144.1L19.1051 144.067L18.9277 142.569L18.891 142.537L18.867 142.544C18.8379 142.561 18.7574 142.619 18.6443 142.703C18.3084 142.953 17.7158 143.409 17.7156 143.409L17.7018 143.441L17.7223 143.47L17.7387 143.437L17.7615 143.465C17.7621 143.465 18.0422 143.25 18.3264 143.034C18.4686 142.926 18.6115 142.818 18.7207 142.737C18.7752 142.696 18.8215 142.663 18.8545 142.639L18.8934 142.613L18.9029 142.607L18.9033 142.607L18.8908 142.579V142.609L18.9033 142.607L18.8908 142.579V142.609V142.573L18.8541 142.577L19.0236 144.01L17.7547 143.405L17.7387 143.437Z" fill="#E27625"/>
<path d="M19.0387 144.071L17.709 143.437L17.8271 144.273V144.618L19.0387 144.071ZM14.9613 144.071L16.2023 144.647V144.302L16.3205 143.466L14.9613 144.071Z" fill="#D5BFB2"/>
<path d="M19.0387 144.071L19.0549 144.039L17.7252 143.405L17.6873 143.408L17.6725 143.442L17.7902 144.275V144.618L17.8072 144.649L17.8426 144.651L19.0539 144.104L19.0754 144.071L19.0547 144.038L19.0387 144.071L19.023 144.038L17.8641 144.562V144.273L17.8637 144.268L17.7549 143.499L19.0223 144.103L19.0387 144.071ZM14.9613 144.071L14.9455 144.104L16.1865 144.68L16.2221 144.678L16.2393 144.647V144.304L16.357 143.471L16.3426 143.437L16.3053 143.433L14.9461 144.038L14.9244 144.071L14.9455 144.103L14.9613 144.071L14.9768 144.104L16.2748 143.526L16.1658 144.296L16.1654 144.301V144.59L14.9773 144.038L14.9613 144.071Z" fill="#D5BFB2"/>
<path d="M16.2023 142.026L15.1092 141.709L15.8773 141.364L16.2023 142.026ZM17.7979 142.026L18.1229 141.364L18.891 141.709L17.7979 142.026Z" fill="#233447"/>
<path d="M16.2023 142.026L16.2129 141.991L15.2135 141.702L15.8598 141.411L16.1691 142.042L16.2023 142.026L16.2357 142.01L15.9107 141.348L15.8619 141.331L15.0938 141.676L15.0725 141.712L15.0988 141.744L16.192 142.06L16.2307 142.049L16.2359 142.011L16.2023 142.026ZM17.7979 142.026L17.8313 142.042L18.1406 141.411L18.7869 141.702L17.7875 141.991L17.7979 142.026L17.8084 142.06L18.9016 141.744L18.9279 141.712L18.9066 141.676L18.1385 141.331L18.0896 141.348L17.7646 142.01L17.7699 142.049L17.8086 142.06L17.7979 142.026Z" fill="#233447"/>
<path d="M14.9613 144.071L15.1387 142.544L13.9273 142.573L14.9613 144.071ZM18.8615 142.516L19.0389 144.042L20.073 142.544L18.8615 142.516ZM19.7773 140.845L17.5908 140.931L17.7977 142.026L18.1227 141.364L18.8908 141.709L19.7773 140.845ZM15.109 141.709L15.8771 141.364L16.2021 142.026L16.409 140.931L14.2225 140.845L15.109 141.709Z" fill="#CC6228"/>
<path d="M14.9613 144.071L14.998 144.075L15.1754 142.548L15.166 142.52L15.1379 142.508L13.9266 142.537L13.8947 142.556L13.8969 142.593L14.9311 144.091L14.9705 144.106L14.9984 144.075L14.9613 144.071L14.992 144.051L13.9955 142.607L15.0971 142.581L14.9246 144.067L14.9613 144.071ZM18.8615 142.516L18.8248 142.52L19.0021 144.046L19.0301 144.077L19.0695 144.062L20.1037 142.564L20.1059 142.528L20.074 142.508L18.8627 142.48L18.8346 142.491L18.8252 142.52L18.8615 142.516L18.8605 142.551L20.0047 142.579L19.0643 143.941L18.8982 142.512L18.8615 142.516ZM19.7773 140.845L19.7758 140.809L17.5893 140.895L17.5619 140.909L17.5545 140.938L17.7613 142.032L17.7928 142.062L17.8309 142.041L18.1402 141.411L18.8754 141.742L18.917 141.734L19.8033 140.87L19.8109 140.83L19.7756 140.809L19.7773 140.845L19.7512 140.819L18.883 141.666L18.1383 141.331L18.0895 141.348L17.8135 141.91L17.635 140.965L19.7789 140.881L19.7773 140.845ZM15.109 141.709L15.1244 141.742L15.8596 141.411L16.1689 142.042L16.207 142.062L16.2385 142.033L16.4453 140.938L16.4379 140.909L16.4105 140.895L14.224 140.809L14.1887 140.831L14.1963 140.871L15.0826 141.735L15.1242 141.742L15.109 141.709L15.1352 141.684L14.3156 140.885L16.365 140.966L16.1865 141.91L15.9105 141.348L15.8617 141.331L15.0936 141.676L15.109 141.709Z" fill="#CC6228"/>
<path d="M14.2227 140.816L15.1387 142.573L15.1092 141.709C15.109 141.709 14.2227 140.845 14.2227 140.816ZM18.891 141.709L18.8615 142.573L19.7775 140.816L18.891 141.709ZM16.409 140.931L16.2021 142.026L16.468 143.322L16.5271 141.623L16.409 140.931ZM17.591 140.931L17.4729 141.623L17.532 143.322L17.7979 142.026L17.591 140.931Z" fill="#E27525"/>
<path d="M14.2227 140.816L14.1896 140.832L15.1057 142.59L15.1479 142.608L15.1756 142.572L15.1461 141.708L15.1354 141.684C15.135 141.683 14.9139 141.468 14.6924 141.248C14.5816 141.139 14.4709 141.028 14.3881 140.943C14.3467 140.901 14.3123 140.865 14.2885 140.839L14.2617 140.809L14.2562 140.802L14.2496 140.806L14.2566 140.803L14.2562 140.802L14.2496 140.806L14.2566 140.803L14.2275 140.816H14.2598L14.2566 140.803L14.2275 140.816H14.2598H14.2227L14.1896 140.833L14.2227 140.816H14.1857L14.1943 140.841C14.2127 140.867 14.2723 140.929 14.3586 141.017C14.615 141.278 15.0828 141.734 15.083 141.735L15.1092 141.709L15.0723 141.71L15.0963 142.412L14.2557 140.8L14.2141 140.781L14.1857 140.816H14.2227ZM18.891 141.709L18.8541 141.708L18.8246 142.572L18.8523 142.608L18.8945 142.59L19.8105 140.832L19.799 140.787L19.751 140.791L18.8646 141.684L18.8543 141.708L18.891 141.709L18.9176 141.734L19.6334 141.013L18.9039 142.412L18.9279 141.71L18.891 141.709ZM16.409 140.931L16.3727 140.925L16.1658 142.019L16.166 142.033L16.4318 143.329L16.4711 143.358L16.5051 143.323L16.5643 141.624L16.5639 141.617L16.4457 140.926L16.4096 140.895L16.3729 140.925L16.409 140.931L16.3725 140.937L16.49 141.625L16.4418 143.011L16.2396 142.026L16.4451 140.938L16.409 140.931ZM17.591 140.931L17.5545 140.925L17.4363 141.617L17.4359 141.624L17.4951 143.323L17.5291 143.358L17.5684 143.329L17.8342 142.033L17.8344 142.019L17.6275 140.925L17.5908 140.895L17.5547 140.925L17.591 140.931L17.5547 140.938L17.7602 142.026L17.558 143.011L17.5098 141.625L17.6273 140.937L17.591 140.931Z" fill="#E27525"/>
<path d="M17.7979 142.026L17.532 143.322L17.7094 143.437L18.8617 142.573L18.8912 141.709L17.7979 142.026ZM15.109 141.709L15.1385 142.573L16.2908 143.437L16.4682 143.322L16.2023 142.026L15.109 141.709Z" fill="#F5841F"/>
<path d="M17.7979 142.026L17.7617 142.019L17.4959 143.315L17.5117 143.352L17.6891 143.467L17.732 143.466L18.8844 142.602L18.8988 142.575L18.9283 141.71L18.9141 141.681L18.8811 141.675L17.7879 141.991L17.7621 142.019L17.7979 142.026L17.8084 142.06L18.8525 141.758L18.8252 142.555L17.7076 143.393L17.5729 143.306L17.834 142.033L17.7979 142.026ZM15.109 141.709L15.0721 141.71L15.1016 142.574L15.116 142.602L16.2684 143.466L16.3113 143.467L16.4887 143.352L16.5045 143.315L16.2387 142.019L16.2129 141.991L15.1197 141.674L15.0867 141.681L15.0725 141.71L15.109 141.709L15.0984 141.744L16.1703 142.054L16.427 143.306L16.2924 143.393L15.1748 142.555L15.1459 141.708L15.109 141.709Z" fill="#F5841F"/>
<path d="M17.8273 144.618V144.273L17.7387 144.186H16.2613L16.1727 144.273V144.618L14.9318 144.042L15.375 144.388L16.2318 144.964H17.7387L18.625 144.388L19.0387 144.042L17.8273 144.618Z" fill="#C0AC9D"/>
<path d="M17.8273 144.618H17.8643V144.273L17.8535 144.247L17.7648 144.161L17.7387 144.15H16.2613L16.2352 144.161L16.1465 144.247L16.1357 144.273V144.561L14.9477 144.01L14.9004 144.023L14.9086 144.07L15.3539 144.418L16.2107 144.994L16.2318 145H17.7387L17.7592 144.994L18.6455 144.418L18.649 144.415L19.0627 144.07L19.0695 144.022L19.0225 144.01L17.8111 144.586L17.8273 144.618L17.8436 144.651L18.7957 144.198L18.6027 144.359L17.7275 144.928H16.2434L15.3971 144.359L15.2041 144.209L16.1568 144.651L16.1924 144.649L16.2096 144.618V144.288L16.2766 144.222H17.7234L17.7904 144.288V144.618L17.8078 144.649L17.8436 144.651L17.8273 144.618Z" fill="#C0AC9D"/>
<path d="M17.7387 143.437L17.5613 143.322H16.4682L16.2908 143.437L16.1727 144.273L16.2613 144.186H17.7387L17.8273 144.273L17.7387 143.437Z" fill="#161616"/>
<path d="M17.7387 143.437L17.7592 143.407L17.5818 143.292L17.5613 143.286H16.4682L16.4477 143.292L16.2703 143.407L16.2543 143.432L16.1361 144.268L16.1562 144.305L16.1988 144.298L16.2766 144.222H17.7234L17.8012 144.298L17.8432 144.305L17.8641 144.269L17.7754 143.434L17.7592 143.407L17.7387 143.437L17.702 143.441L17.7799 144.176L17.7648 144.161L17.7387 144.15H16.2613L16.2352 144.161L16.2242 144.172L16.3252 143.458L16.4793 143.358H17.5502L17.7182 143.467L17.7387 143.437Z" fill="#161616"/>
<path d="M21.6389 139.03L21.9639 137.475L21.4912 136.034L17.7389 138.742L19.1867 139.923L21.2254 140.499L21.6686 139.981L21.4617 139.837L21.7572 139.549L21.5209 139.376L21.8164 139.145L21.6389 139.03ZM12.0361 137.475L12.3611 139.03L12.1543 139.174L12.4793 139.405L12.243 139.577L12.5385 139.866L12.3316 140.01L12.7748 140.528L14.8135 139.952L16.2613 138.771L12.5385 136.034L12.0361 137.475Z" fill="#763E1A"/>
<path d="M21.6389 139.03L21.675 139.037L22 137.482L21.999 137.464L21.5264 136.023L21.5025 136L21.4691 136.006L17.7168 138.713L17.7018 138.741L17.715 138.77L19.1629 139.951L19.1764 139.958L21.215 140.534L21.2537 140.522L21.6969 140.004L21.7051 139.976L21.6898 139.951L21.5186 139.832L21.7832 139.574L21.7939 139.546L21.7793 139.52L21.5811 139.375L21.8393 139.173L21.8531 139.144L21.8367 139.115L21.6594 139L21.6389 139.03L21.6184 139.06L21.7537 139.148L21.4977 139.348L21.4838 139.377L21.4986 139.405L21.701 139.553L21.4355 139.811L21.4248 139.84L21.4402 139.866L21.6146 139.988L21.2123 140.458L19.2041 139.891L17.7982 138.744L21.4715 136.093L21.9256 137.477L21.6025 139.023L21.6182 139.06L21.6389 139.03ZM12.0361 137.475L12 137.482L12.3203 139.014L12.133 139.145L12.1176 139.174L12.1328 139.203L12.4174 139.405L12.2211 139.549L12.2064 139.575L12.2172 139.603L12.4818 139.861L12.3105 139.98L12.2953 140.005L12.3035 140.033L12.7467 140.551L12.7854 140.563L14.824 139.987L14.8375 139.98L16.2854 138.799L16.2986 138.77L16.284 138.742L12.5607 136.006L12.5277 136L12.5037 136.023L12.0012 137.463L12 137.482L12.0361 137.475L12.0711 137.486L12.557 136.093L16.202 138.773L14.7957 139.92L12.7877 140.487L12.3854 140.016L12.5598 139.895L12.5752 139.869L12.5645 139.84L12.299 139.581L12.5014 139.434L12.5162 139.404L12.501 139.375L12.2174 139.174L12.3824 139.059L12.3971 139.023L12.0725 137.468L12.0361 137.475Z" fill="#763E1A"/>
<path d="M21.1955 140.499L19.1568 139.923L19.7773 140.816L18.8613 142.544H21.875L21.1955 140.499ZM14.8432 139.923L12.8045 140.499L12.1248 142.544H15.1385L14.2225 140.816L14.8432 139.923ZM17.591 140.931L17.7387 138.742L18.3297 137.187H15.7L16.291 138.742L16.4092 140.931L16.4684 141.623V143.322H17.5615V141.623L17.591 140.931Z" fill="#F5841F"/>
<path d="M21.1955 140.499L21.2059 140.465L19.1672 139.888L19.127 139.902L19.1262 139.943L19.7344 140.818L18.8285 142.528L18.8297 142.563L18.8613 142.58H21.875L21.9049 142.565L21.9102 142.533L21.2307 140.488L21.2059 140.465L21.1955 140.499L21.1604 140.51L21.8242 142.508H18.9219L19.81 140.832L19.8078 140.796L19.2447 139.985L21.1852 140.534L21.1955 140.499ZM14.8432 139.923L14.8328 139.888L12.7941 140.465L12.7693 140.488L12.0896 142.533L12.0949 142.566L12.1248 142.58H15.1385L15.1699 142.563L15.1711 142.528L14.2652 140.819L14.8734 139.943L14.8727 139.902L14.8324 139.889L14.8432 139.923L14.8125 139.903L14.192 140.796L14.1898 140.833L15.0779 142.508H12.1756L12.8334 140.529L14.8533 139.958L14.8432 139.923ZM17.591 140.931L17.6279 140.934L17.7754 138.75L18.3645 137.199L18.3602 137.166L18.3299 137.15H15.7L15.6697 137.166L15.6654 137.199L16.2543 138.749L16.3723 140.933V140.934L16.4313 141.624V143.322L16.442 143.348L16.4682 143.358H17.5613L17.5875 143.348L17.5982 143.322V141.623L17.6277 140.933L17.591 140.931L17.5541 140.93L17.5246 141.621V143.286H16.5053V141.623L16.5051 141.62L16.4461 140.929L16.3279 138.74L16.3258 138.729L15.7533 137.222H18.2768L17.7043 138.729L17.7021 138.739L17.5545 140.929V140.93L17.591 140.931Z" fill="#F5841F"/>
<rect x="30" y="138" width="65" height="5" rx="2" fill="#EDEDED"/>
<g clip-path="url(#clip1_4_98)">
<path d="M92.7447 115.388L95.6589 112H94.9682L92.438 114.941L90.417 112H88.086L91.1421 116.448L88.086 120H88.7766L91.4487 116.894L93.583 120H95.914L92.7446 115.388H92.7447ZM91.7989 116.487L91.4892 116.044L89.0254 112.52H90.0862L92.0744 115.364L92.384 115.807L94.9686 119.504H93.9079L91.7989 116.487V116.487Z" fill="black"/>
</g>
<defs>
<clipPath id="clip0_4_98">
<rect width="10.08" height="10.08" fill="white" transform="translate(11.76 110.8)"/>
</clipPath>
<clipPath id="clip1_4_98">
<rect width="8" height="8" fill="white" transform="translate(88 112)"/>
</clipPath>
</defs>
</svg>
